<?xml version="1.0" encoding="UTF-8"?><svg id="Layer_1" xmlns="http://www.w3.org/2000/svg" viewBox="0 0 324 314"><defs><style>.cls-1{fill:#ff5d47;}</style></defs><path class="cls-1" d="M87.9,188.53c-6.52-18.09-9.86-47.11,5.21-74.74,13.72-25.16,38.46-40.87,68.9-40.87,33.99,0,57.06,19.16,68.9,40.87,14.39,26.39,12.09,55.65,5.21,74.74h84.08c2.21-11.38,11-61.93-18.35-110.94C274.14,31.3,223.85,.51,162.01,.51,96.72,.51,47.95,34.48,22.16,77.59-7.04,126.41,1.46,176.42,3.81,188.53H87.9Z"/><path class="cls-1" d="M24.95,241.08c24.93,39.11,71.19,72.41,137.05,72.41,58.28,0,108.27-27.28,137.05-72.41H24.95Z"/></svg>